<svg width="105" height="69" viewBox="0 0 105 69" fill="none" xmlns="http://www.w3.org/2000/svg">
<path d="M1.89546 31.9383C1.90602 31.9433 1.91643 31.9466 1.927 31.9466H7.53762C8.63315 36.0246 12.0753 39 16.1528 39C20.2304 39 23.6726 36.0248 24.7665 31.9466H77.4423C78.5363 36.0246 81.9785 39 86.056 39C90.1336 39 93.5758 36.0248 94.6712 31.9466H100.641C102.171 31.9466 103.439 30.6452 103.54 28.9712L103.907 22.8221C103.931 22.4151 103.883 22.0082 103.767 21.6209L102.317 16.7911L103.071 12.2961C103.235 11.3132 102.681 10.358 101.8 10.1021L99.666 9.48319L100.657 5.43553L101.488 5.31076C103.711 4.97663 105.267 2.73202 104.962 0.296882C104.938 0.108826 104.78 -0.0225499 104.608 0.00322928L99.1467 0.823866C96.9232 1.158 95.3679 3.40261 95.6729 5.83775C95.6964 6.0258 95.8547 6.15735 96.0263 6.1314L98.1872 5.80685L97.4422 8.8468C80.2297 4.03519 62.4315 2.21363 44.6991 3.45103C43.695 3.52159 42.703 3.70221 41.7364 3.9876C40.7698 4.2748 39.8288 4.6686 38.931 5.16435L25.3212 12.6608C24.1015 13.3319 22.8036 13.8177 21.4639 14.1049L8.92394 16.7815C6.93839 17.2065 5.1715 18.439 3.98316 20.2311L1.9107 23.3557C0.758274 23.8513 9.13099e-08 25.069 9.13099e-08 26.4246V28.8172C-0.000301709 30.1809 0.747561 31.4115 1.89546 31.9383ZM96.1337 19.9685L96.7136 18.3324C96.7841 18.1354 96.9294 17.9827 97.1123 17.9138L99.6449 16.962C100.006 16.8258 100.399 17.0571 100.493 17.4641L101.069 19.9423C101.172 20.3886 100.871 20.8234 100.451 20.8366L96.7616 20.9465C96.294 20.9614 95.9629 20.4476 96.1337 19.9685ZM91.2889 29.1682C91.2889 30.1759 91.0491 31.1228 90.6295 31.9466C89.7363 33.7058 88.0221 34.8973 86.056 34.8973C84.0914 34.8973 82.377 33.7058 81.4823 31.9466C81.0627 31.1228 80.8244 30.1759 80.8244 29.1682C80.8244 26.0076 83.1712 23.4376 86.0558 23.4376C88.9421 23.4376 91.2889 26.0076 91.2889 29.1682ZM74.2532 7.22883L79.9042 8.11177C81.2979 8.32841 82.5611 9.12095 83.4363 10.3256C83.6882 10.6718 83.4468 11.1806 83.0437 11.1511L78.1224 10.8098C76.4934 10.6966 74.9935 9.79898 74.0283 8.35651L73.8125 8.03493C73.5684 7.67022 73.8456 7.16472 74.2532 7.22883ZM71.5949 19.3973L69.858 24.4501C69.2842 26.1241 68.0613 27.4319 66.5192 28.0229L66.1746 28.1541C65.785 28.3035 65.4254 27.8652 65.5992 27.4567L68.0223 21.795C68.6189 20.4017 69.6797 19.3088 70.988 18.7442C71.364 18.5817 71.7372 18.9838 71.5949 19.3973ZM26.9873 16.3352L27.0037 16.3252L40.6136 8.82879C41.9682 8.08219 43.4233 7.65055 44.9369 7.54545C48.4316 7.30088 51.9801 7.17777 55.4822 7.17777C58.3069 7.17777 61.1288 7.25824 63.9476 7.41573C65.0475 7.47819 66.0981 7.9376 66.9327 8.727C69.2793 10.949 71.6562 13.6207 71.4238 15.1501C70.9892 18.0007 31.1905 18.4061 28.4168 18.4307C28.3164 18.4324 28.2174 18.411 28.1231 18.3701L27.0502 17.9022C26.4193 17.6282 26.3819 16.6683 26.9873 16.3352ZM16.1527 23.4376C19.0374 23.4376 21.3842 26.0076 21.3842 29.1682C21.3842 30.1759 21.1444 31.1228 20.7248 31.9466C19.8316 33.7058 18.1172 34.8973 16.1527 34.8973C14.1866 34.8973 12.4722 33.7058 11.5777 31.9466C11.158 31.1228 10.9197 30.1759 10.9197 29.1682C10.9197 26.0076 13.2664 23.4376 16.1527 23.4376ZM4.95994 23.0405L7.11344 20.0997C7.15237 20.0472 7.20639 20.0128 7.26766 20.0012L12.0212 19.1134C12.2804 19.0643 12.4242 19.4285 12.216 19.6023L8.79929 22.4463C8.77228 22.4693 8.74225 22.4856 8.71087 22.4939L5.21768 23.4785C4.98544 23.5444 4.80859 23.2458 4.95994 23.0405Z" fill="white"/>
<path d="M19.6974 50.1818L23.0373 60.6804H23.1655L26.5121 50.1818H29.7507L24.9872 64H21.2223L16.4521 50.1818H19.6974ZM31.4139 64V50.1818H40.725V52.5906H34.3354V55.8832H40.2459V58.2919H34.3354V61.5913H40.752V64H31.4139ZM43.0477 64V50.1818H45.9692V55.8832H51.8999V50.1818H54.8147V64H51.8999V58.2919H45.9692V64H43.0477ZM60.145 50.1818V64H57.2235V50.1818H60.145ZM74.7408 55.0195H71.7855C71.7315 54.6372 71.6213 54.2976 71.4549 54.0007C71.2885 53.6993 71.0748 53.4429 70.8139 53.2315C70.553 53.0201 70.2517 52.8582 69.9098 52.7457C69.5724 52.6333 69.2058 52.5771 68.81 52.5771C68.0948 52.5771 67.4718 52.7547 66.9411 53.1101C66.4103 53.4609 65.9987 53.9737 65.7063 54.6484C65.4139 55.3187 65.2678 56.1328 65.2678 57.0909C65.2678 58.076 65.4139 58.9036 65.7063 59.5739C66.0032 60.2441 66.417 60.7501 66.9478 61.092C67.4786 61.4338 68.0926 61.6048 68.7898 61.6048C69.1811 61.6048 69.5432 61.553 69.8761 61.4496C70.2134 61.3461 70.5125 61.1954 70.7734 60.9975C71.0343 60.7951 71.2502 60.55 71.4212 60.2621C71.5966 59.9742 71.718 59.6458 71.7855 59.277L74.7408 59.2905C74.6643 59.9247 74.4731 60.5365 74.1673 61.1257C73.8659 61.7105 73.4588 62.2345 72.946 62.6978C72.4377 63.1566 71.8305 63.521 71.1243 63.7908C70.4226 64.0562 69.6287 64.1889 68.7425 64.1889C67.5101 64.1889 66.408 63.91 65.4364 63.3523C64.4693 62.7945 63.7047 61.9871 63.1424 60.93C62.5846 59.873 62.3058 58.5933 62.3058 57.0909C62.3058 55.584 62.5891 54.3021 63.1559 53.245C63.7227 52.188 64.4918 51.3828 65.4634 50.8295C66.435 50.2718 67.5281 49.9929 68.7425 49.9929C69.5432 49.9929 70.2854 50.1053 70.9691 50.3303C71.6573 50.5552 72.2668 50.8835 72.7976 51.3153C73.3284 51.7427 73.7602 52.2667 74.093 52.8874C74.4304 53.5082 74.6463 54.2189 74.7408 55.0195ZM84.3319 54.1559C84.2779 53.6116 84.0462 53.1888 83.6369 52.8874C83.2276 52.5861 82.6721 52.4354 81.9703 52.4354C81.4935 52.4354 81.091 52.5028 80.7626 52.6378C80.4342 52.7682 80.1824 52.9504 80.0069 53.1843C79.836 53.4182 79.7505 53.6836 79.7505 53.9805C79.7415 54.2279 79.7933 54.4438 79.9057 54.6282C80.0227 54.8126 80.1824 54.9723 80.3848 55.1072C80.5872 55.2377 80.8211 55.3524 81.0865 55.4513C81.3519 55.5458 81.6352 55.6268 81.9366 55.6942L83.1781 55.9911C83.7808 56.1261 84.3341 56.306 84.8379 56.5309C85.3417 56.7558 85.778 57.0324 86.1468 57.3608C86.5157 57.6892 86.8013 58.076 87.0037 58.5213C87.2106 58.9666 87.3163 59.4772 87.3208 60.0529C87.3163 60.8986 87.1004 61.6317 86.6731 62.2525C86.2503 62.8687 85.6386 63.3478 84.8379 63.6896C84.0417 64.027 83.0814 64.1957 81.9569 64.1957C80.8413 64.1957 79.8697 64.0247 79.0421 63.6829C78.2189 63.341 77.5757 62.835 77.1124 62.1648C76.6536 61.4901 76.4129 60.6557 76.3904 59.6616H79.2175C79.249 60.1249 79.3817 60.5117 79.6156 60.8221C79.854 61.128 80.1711 61.3596 80.5669 61.517C80.9673 61.67 81.4193 61.7464 81.9231 61.7464C82.4179 61.7464 82.8475 61.6745 83.2118 61.5305C83.5807 61.3866 83.8663 61.1864 84.0687 60.93C84.2711 60.6737 84.3723 60.379 84.3723 60.0462C84.3723 59.7358 84.2801 59.4749 84.0957 59.2635C83.9158 59.0521 83.6504 58.8722 83.2995 58.7237C82.9532 58.5753 82.5281 58.4403 82.0243 58.3189L80.5197 57.9411C79.3547 57.6577 78.4348 57.2146 77.7601 56.6119C77.0854 56.0091 76.7503 55.1972 76.7548 54.1761C76.7503 53.3395 76.973 52.6085 77.4228 51.9833C77.8771 51.3581 78.5001 50.87 79.2917 50.5192C80.0834 50.1683 80.983 49.9929 81.9906 49.9929C83.0162 49.9929 83.9113 50.1683 84.676 50.5192C85.4451 50.87 86.0434 51.3581 86.4707 51.9833C86.898 52.6085 87.1184 53.3327 87.1319 54.1559H84.3319Z" fill="white"/>
</svg>
